<svg width="73" height="17" viewBox="0 0 73 17" fill="none" xmlns="http://www.w3.org/2000/svg">
<path fill-rule="evenodd" clip-rule="evenodd" d="M13.0797 16.9167C12.8512 16.9167 12.648 16.8405 12.4703 16.739L8.86484 14.3776C8.81406 14.3522 8.78867 14.3522 8.73789 14.3776L5.13242 16.739C4.92929 16.8405 4.72617 16.9167 4.49765 16.9167C4.14218 16.9167 3.8121 16.7643 3.60898 16.485C3.38046 16.2057 3.30429 15.8503 3.40585 15.5202L4.42148 11.0768C4.42148 11.0261 4.42148 10.9753 4.3707 10.9499L1.04453 7.9538C0.714448 7.64911 0.587495 7.16669 0.714448 6.73505C0.866792 6.30341 1.24765 5.99872 1.70468 5.97333L5.9957 5.64325C6.04648 5.64325 6.07187 5.61786 6.09726 5.56708L7.69687 1.40302C7.9 0.945984 8.30624 0.666687 8.78867 0.666687C9.27109 0.666687 9.67734 0.945984 9.85507 1.40302L11.4547 5.56708C11.4801 5.61786 11.5055 5.64325 11.5562 5.64325L15.8473 5.97333C16.3043 5.99872 16.6852 6.30341 16.8375 6.73505C16.9898 7.16669 16.8629 7.64911 16.5074 7.9538L13.1812 10.9499C13.1559 10.9753 13.1305 11.0261 13.1305 11.0768L14.1715 15.5202C14.2477 15.8503 14.1715 16.2057 13.9684 16.485C13.7652 16.7643 13.4098 16.9167 13.0797 16.9167ZM40.4703 16.739C40.648 16.8405 40.8512 16.9167 41.0797 16.9167C41.4098 16.9167 41.7652 16.7643 41.9684 16.485C42.1715 16.2057 42.2477 15.8503 42.1715 15.5202L41.1305 11.0768C41.1305 11.0261 41.1559 10.9753 41.1812 10.9499L44.5074 7.9538C44.8629 7.64911 44.9898 7.16669 44.8375 6.73505C44.6852 6.30341 44.3043 5.99872 43.8473 5.97333L39.5562 5.64325C39.5055 5.64325 39.4801 5.61786 39.4547 5.56708L37.8551 1.40302C37.6773 0.945984 37.2711 0.666687 36.7887 0.666687C36.3062 0.666687 35.9 0.945984 35.6969 1.40302L34.0973 5.56708C34.0719 5.61786 34.0465 5.64325 33.9957 5.64325L29.7047 5.97333C29.2477 5.99872 28.8668 6.30341 28.7144 6.73505C28.5875 7.16669 28.7144 7.64911 29.0445 7.9538L32.3707 10.9499C32.4215 10.9753 32.4215 11.0261 32.4215 11.0768L31.4059 15.5202C31.3043 15.8503 31.3805 16.2057 31.609 16.485C31.8121 16.7643 32.1422 16.9167 32.4977 16.9167C32.7262 16.9167 32.9293 16.8405 33.1324 16.739L36.7379 14.3776C36.7887 14.3522 36.8141 14.3522 36.8648 14.3776L40.4703 16.739ZM68.4703 16.739C68.648 16.8405 68.8512 16.9167 69.0797 16.9167C69.4098 16.9167 69.7652 16.7643 69.9684 16.485C70.1715 16.2057 70.2477 15.8503 70.1715 15.5202L69.1305 11.0768C69.1305 11.0261 69.1559 10.9753 69.1812 10.9499L72.5074 7.9538C72.8629 7.64911 72.9898 7.16669 72.8375 6.73505C72.6852 6.30341 72.3043 5.99872 71.8473 5.97333L67.5562 5.64325C67.5055 5.64325 67.4801 5.61786 67.4547 5.56708L65.8551 1.40302C65.6773 0.945984 65.2711 0.666687 64.7887 0.666687C64.3062 0.666687 63.9 0.945984 63.6969 1.40302L62.0973 5.56708C62.0719 5.61786 62.0465 5.64325 61.9957 5.64325L57.7047 5.97333C57.2477 5.99872 56.8668 6.30341 56.7144 6.73505C56.5875 7.16669 56.7144 7.64911 57.0445 7.9538L60.3707 10.9499C60.4215 10.9753 60.4215 11.0261 60.4215 11.0768L59.4059 15.5202C59.3043 15.8503 59.3805 16.2057 59.609 16.485C59.8121 16.7643 60.1422 16.9167 60.4977 16.9167C60.7262 16.9167 60.9293 16.8405 61.1324 16.739L64.7379 14.3776C64.7887 14.3522 64.8141 14.3522 64.8648 14.3776L68.4703 16.739Z" fill="#FD7E14"/>
</svg>
